<svg xmlns="http://www.w3.org/2000/svg" width="20" height="20" viewBox="0 0 20 20" fill="none">
<path fill-rule="evenodd" clip-rule="evenodd" d="M15.89 13.8602C15.8967 13.9683 15.9333 14.0628 16 14.1439L19.9 18.075C19.9667 18.1425 20 18.2303 20 18.3384C20 18.4465 19.9667 18.5343 19.9 18.6018L18.62 19.8987C18.5533 19.9662 18.4667 20 18.36 20C18.2533 20 18.1667 19.9662 18.1 19.8987L17.74 19.5137L17.4175 19.2262L14.1856 15.9543C14.1269 15.9074 14.055 15.8815 13.97 15.8764C13.8567 15.8696 13.76 15.9 13.68 15.9676L13.315 16.2147C12.6983 16.6106 12.04 16.9267 11.34 17.1631C10.4733 17.4468 9.58667 17.5887 8.68 17.5887C7.10666 17.5887 5.64667 17.1901 4.3 16.3931C2.99333 15.6096 1.95334 14.5559 1.18 13.232C0.393329 11.8676 0 10.3884 0 8.79433C0 7.20026 0.393329 5.72105 1.18 4.35664C1.95334 3.03275 2.99333 1.97907 4.3 1.19554C5.64667 0.39851 7.10666 0 8.68 0C10.2533 0 11.7067 0.39851 13.04 1.19554C14.3467 1.97907 15.3867 3.03275 16.16 4.35664C16.9467 5.72105 17.34 7.20026 17.34 8.79433C17.34 10.5235 16.88 12.1108 15.96 13.5562C15.9067 13.6508 15.8833 13.7521 15.89 13.8602ZM12.7059 13.4533C13.0588 13.1531 13.3725 12.8203 13.6471 12.4548C14.0784 11.8936 14.4118 11.2769 14.6471 10.6047C14.8824 9.93248 15 9.23093 15 8.5C15 7.3253 14.7059 6.23545 14.1176 5.23042C13.5425 4.23845 12.7647 3.45532 11.7843 2.88102C10.7778 2.29367 9.68628 2 8.5098 2C7.33333 2 6.24184 2.29367 5.23529 2.88102C4.24183 3.45532 3.45752 4.23845 2.88235 5.23042C2.29411 6.23545 2 7.3253 2 8.5C2 9.6747 2.29411 10.7646 2.88235 11.7696C3.45752 12.7616 4.24183 13.5447 5.23529 14.119C6.24184 14.7063 7.33333 15 8.5098 15C9.29412 15 10.0457 14.8662 10.7647 14.5986C11.4837 14.3311 12.1307 13.9493 12.7059 13.4533Z" fill="white"/>
</svg>